<svg width="19" height="36" viewBox="0 0 19 36" fill="none" xmlns="http://www.w3.org/2000/svg">
<mask id="mask0_0_1039" style="mask-type:alpha" maskUnits="userSpaceOnUse" x="0" y="0" width="19" height="36">
<rect width="19" height="36" fill="white"/>
</mask>
<g mask="url(#mask0_0_1039)">
<path fill-rule="evenodd" clip-rule="evenodd" d="M6.92673 33.7348C6.34673 33.6147 5.9654 33.2812 5.81073 32.8542C5.11206 30.426 5.03738 28.2112 5.03738 24.1552C5.03738 18.9785 4.62539 16.8971 1.76672 13.3348C1.24805 12.6944 0.996047 12.4008 1.00005 11.9072C1.07205 7.46427 2.35204 4.3022 4.99072 2.06073C6.36672 1.43365 7.65873 1.11343 8.99873 1.02004C9.3214 0.993321 9.65474 0.993321 10.0001 1.02004C11.3401 1.1134 12.6321 1.43365 14.0094 2.06073C16.6481 4.3022 17.9281 7.46427 18.0001 11.9072C18.0041 12.4008 17.7521 12.6944 17.2334 13.3348C14.3748 16.8971 13.9628 18.9785 13.9628 24.1552C13.9628 28.2112 13.8881 30.426 13.1894 32.8542C13.0214 33.2812 12.6721 33.5614 12.0734 33.7348C10.3974 34.0817 8.68141 34.095 6.92673 33.7348Z" stroke="#B39D79" stroke-width="0.999997" stroke-miterlimit="79.8403"/>
<path fill-rule="evenodd" clip-rule="evenodd" d="M9.4999 17.5509L9.05723 17.5109C8.70789 17.4442 8.48922 17.204 8.49988 16.617L8.5359 15.5363C8.6012 14.0286 8.97856 13.535 9.4999 13.5083C10.0212 13.535 10.3986 14.0286 10.4639 15.5363L10.4999 16.617C10.5106 17.204 10.2919 17.4442 9.94256 17.5109L9.4999 17.5509Z" fill="#B39D79"/>
<path fill-rule="evenodd" clip-rule="evenodd" d="M8.74399 22.9812C8.60133 22.1673 8.51733 21.3134 8.50266 20.4061C8.47196 19.8324 8.708 19.5389 9.15467 19.5122H9.83333C10.292 19.5122 10.4853 19.8324 10.4707 20.4061C10.4587 21.3401 10.3653 22.194 10.224 22.9812C10.2067 23.3681 9.81601 23.5148 9.48401 23.5148C9.152 23.5148 8.76266 23.3681 8.74399 22.9812Z" fill="#B39D79"/>
<path fill-rule="evenodd" clip-rule="evenodd" d="M13.4881 7.1442L14.4468 5.22295C14.5694 4.98279 14.4695 4.6759 14.2228 4.55582C13.9761 4.43574 13.6748 4.52912 13.5521 4.78266L12.5934 6.7039C12.4707 6.94407 12.5707 7.25092 12.8174 7.371C13.0641 7.49108 13.3654 7.39772 13.4881 7.1442Z" fill="#B39D79"/>
<path fill-rule="evenodd" clip-rule="evenodd" d="M6.1827 7.37099C6.42937 7.25091 6.52937 6.94407 6.4067 6.7039L5.44804 4.78265C5.32538 4.52914 5.02404 4.43574 4.77737 4.55582C4.53071 4.6759 4.43071 4.98278 4.55337 5.22294L5.51203 7.14419C5.6347 7.39769 5.93603 7.49107 6.1827 7.37099Z" fill="#B39D79"/>
<path fill-rule="evenodd" clip-rule="evenodd" d="M14.4869 10.1195L15.4456 8.23822C15.5709 7.98473 15.4723 7.6912 15.2256 7.55778C14.9803 7.4377 14.6789 7.53105 14.5536 7.78458L13.5949 9.66583C13.4696 9.906 13.5682 10.2128 13.8149 10.3329C14.0603 10.4664 14.3616 10.3597 14.4869 10.1195Z" fill="#B39D79"/>
<path fill-rule="evenodd" clip-rule="evenodd" d="M5.18555 10.3329C5.43222 10.2128 5.53088 9.90599 5.40555 9.66582L4.44689 7.78458C4.32155 7.53107 4.02022 7.4377 3.77488 7.55778C3.52822 7.69119 3.42955 7.98472 3.55488 8.23822L4.51354 10.1195C4.63888 10.3596 4.94022 10.4663 5.18555 10.3329Z" fill="#B39D79"/>
<path fill-rule="evenodd" clip-rule="evenodd" d="M14.4869 14.1219L15.4456 12.2407C15.5709 11.9872 15.4723 11.6936 15.2256 11.5602C14.9803 11.4401 14.6789 11.5335 14.5536 11.787L13.5949 13.6683C13.4696 13.9218 13.5682 14.2153 13.8149 14.3487C14.0603 14.4688 14.3616 14.3754 14.4869 14.1219Z" fill="#B39D79"/>
<path fill-rule="evenodd" clip-rule="evenodd" d="M5.18555 14.3487C5.43222 14.2153 5.53088 13.9218 5.40555 13.6683L4.44689 11.787C4.32155 11.5335 4.02022 11.4401 3.77488 11.5602C3.52822 11.6936 3.42955 11.9872 3.55488 12.2407L4.51354 14.1219C4.63888 14.3754 4.94022 14.4688 5.18555 14.3487Z" fill="#B39D79"/>
<path fill-rule="evenodd" clip-rule="evenodd" d="M11.2332 26.1299C12.0972 20.9666 12.1932 17.0573 11.7025 11.1868C11.6172 10.2395 10.3252 10.0527 9.49986 10.0527C8.67452 10.0527 7.38118 10.2395 7.29718 11.1868C6.80651 17.0573 6.87318 20.9666 7.73718 26.1299C7.96518 27.1573 8.63186 27.9978 9.4852 27.9978C10.3385 27.9978 11.0039 27.1573 11.2332 26.1299V26.1299Z" stroke="#B39D79" stroke-width="0.999997" stroke-miterlimit="79.8403"/>
</g>
</svg>
