<svg width="17" height="28" viewBox="0 0 17 28" fill="none" xmlns="http://www.w3.org/2000/svg">
<mask id="mask0_0_1017" style="mask-type:alpha" maskUnits="userSpaceOnUse" x="0" y="0" width="17" height="28">
<rect width="17" height="28" fill="#D9D9D9"/>
</mask>
<g mask="url(#mask0_0_1017)">
<path fill-rule="evenodd" clip-rule="evenodd" d="M2 4.91998V24.0666C2 25.1332 2.86403 25.9866 3.9267 25.9866H13.0747C14.1374 25.9866 15.0014 25.1332 15.0014 24.0666V4.91998C15.0014 3.85332 14.1374 3 13.0747 3H3.9267C2.86403 3 2 3.85332 2 4.91998Z" stroke="#B39D79" stroke-width="0.999997" stroke-miterlimit="79.8403" stroke-linecap="round"/>
<path d="M4.85071 3.2666L5.39069 4.46658C5.59469 4.78658 5.95068 4.99991 6.35602 4.99991L10.6761 4.9866C11.0814 4.9866 11.4374 4.78661 11.6414 4.46661L12.1814 3.26663" stroke="#B39D79" stroke-width="0.999997" stroke-miterlimit="79.8403" stroke-linecap="round" stroke-linejoin="round"/>
<path d="M5.79468 11.4932H5.20667C4.81638 11.4932 4.5 11.1768 4.5 10.7865V10.2012C4.5 9.81089 4.81638 9.49451 5.20667 9.49451H5.79468C6.18496 9.49451 6.50134 9.81089 6.50134 10.2012V10.7865C6.50134 11.1768 6.18496 11.4932 5.79468 11.4932Z" fill="#B39D79"/>
<path d="M8.79468 11.4922H8.20667C7.81638 11.4922 7.5 11.1758 7.5 10.7855V10.2002C7.5 9.80991 7.81638 9.49353 8.20667 9.49353H8.79468C9.18496 9.49353 9.50134 9.80991 9.50134 10.2002V10.7855C9.50134 11.1758 9.18496 11.4922 8.79468 11.4922Z" fill="#B39D79"/>
<path d="M11.7947 11.4932H11.2067C10.8164 11.4932 10.5 11.1768 10.5 10.7865V10.2012C10.5 9.81089 10.8164 9.49451 11.2067 9.49451H11.7947C12.185 9.49451 12.5013 9.81089 12.5013 10.2012V10.7865C12.5013 11.1768 12.185 11.4932 11.7947 11.4932Z" fill="#B39D79"/>
<path d="M5.79468 14.4932H5.20667C4.81638 14.4932 4.5 14.1768 4.5 13.7865V13.2012C4.5 12.8109 4.81638 12.4945 5.20667 12.4945H5.79468C6.18496 12.4945 6.50134 12.8109 6.50134 13.2012V13.7865C6.50134 14.1768 6.18496 14.4932 5.79468 14.4932Z" fill="#B39D79"/>
<path d="M8.79468 14.4922H8.20667C7.81638 14.4922 7.5 14.1758 7.5 13.7855V13.2002C7.5 12.8099 7.81638 12.4935 8.20667 12.4935H8.79468C9.18496 12.4935 9.50134 12.8099 9.50134 13.2002V13.7855C9.50134 14.1758 9.18496 14.4922 8.79468 14.4922Z" fill="#B39D79"/>
<path d="M11.7947 14.4932H11.2067C10.8164 14.4932 10.5 14.1768 10.5 13.7865V13.2012C10.5 12.8109 10.8164 12.4945 11.2067 12.4945H11.7947C12.185 12.4945 12.5013 12.8109 12.5013 13.2012V13.7865C12.5013 14.1768 12.185 14.4932 11.7947 14.4932Z" fill="#B39D79"/>
<path d="M5.79602 17.4932H5.20801C4.81773 17.4932 4.50134 17.1768 4.50134 16.7865V16.2012C4.50134 15.8109 4.81773 15.4945 5.20801 15.4945H5.79602C6.1863 15.4945 6.50269 15.8109 6.50269 16.2012V16.7865C6.50269 17.1768 6.1863 17.4932 5.79602 17.4932Z" fill="#B39D79"/>
<path d="M8.79602 17.4922H8.20801C7.81773 17.4922 7.50134 17.1758 7.50134 16.7855V16.2002C7.50134 15.8099 7.81773 15.4935 8.20801 15.4935H8.79602C9.1863 15.4935 9.50269 15.8099 9.50269 16.2002V16.7855C9.50269 17.1758 9.1863 17.4922 8.79602 17.4922Z" fill="#B39D79"/>
<path d="M11.796 17.4932H11.208C10.8177 17.4932 10.5013 17.1768 10.5013 16.7865V16.2012C10.5013 15.8109 10.8177 15.4945 11.208 15.4945H11.796C12.1863 15.4945 12.5027 15.8109 12.5027 16.2012V16.7865C12.5027 17.1768 12.1863 17.4932 11.796 17.4932Z" fill="#B39D79"/>
<path d="M8.79468 20.4932H8.20667C7.81638 20.4932 7.5 20.1768 7.5 19.7865V19.2012C7.5 18.8109 7.81638 18.4945 8.20667 18.4945H8.79468C9.18496 18.4945 9.50134 18.8109 9.50134 19.2012V19.7865C9.50134 20.1768 9.18496 20.4932 8.79468 20.4932Z" fill="#B39D79"/>
</g>
</svg>
