<svg width="211" height="24" viewBox="0 0 211 24" fill="none" xmlns="http://www.w3.org/2000/svg">
<path fill-rule="evenodd" clip-rule="evenodd" d="M14.3496 14.0157L10.8804 5.18457L7.4722 14.0157H14.3496ZM23.5431 23.3129H14.0368V22.1784C14.8803 22.1268 15.5786 22.0183 16.124 21.8586C16.6737 21.6953 16.9563 21.5016 16.9563 21.2658C16.9563 21.1743 16.9483 21.053 16.9258 20.912C16.9029 20.7731 16.8644 20.6555 16.8265 20.5469L14.937 15.4571H6.90356C6.60601 16.2021 6.35814 16.8556 6.16743 17.4068C5.98793 17.9656 5.81966 18.4791 5.66687 18.9505C5.51836 19.405 5.43022 19.7791 5.38481 20.068C5.32017 20.357 5.30094 20.5906 5.30094 20.7678C5.30094 21.2009 5.6407 21.5239 6.32395 21.7639C6.99545 21.9991 7.75082 22.1343 8.59807 22.1784V23.3129H0V22.1784C0.274583 22.1555 0.618078 22.0965 1.0417 21.9975C1.46159 21.8953 1.80509 21.7559 2.06792 21.5872C2.5033 21.2967 2.8313 20.9955 3.07223 20.6805C3.31262 20.3628 3.54927 19.9297 3.76296 19.3667C4.9115 16.5198 6.18612 13.3073 7.56812 9.74476C8.94958 6.18483 10.1932 3.0107 11.2696 0.231934H12.5672L20.1733 19.8669C20.341 20.2867 20.521 20.623 20.7267 20.8784C20.9329 21.1365 21.2112 21.3887 21.582 21.6341C21.8299 21.7831 22.1466 21.906 22.5473 22.0092C22.9405 22.1156 23.2802 22.1688 23.5431 22.1784V23.3129Z" fill="#333333"/>
<path fill-rule="evenodd" clip-rule="evenodd" d="M14.3496 14.0157L10.8804 5.18457L7.4722 14.0157H14.3496ZM23.5431 23.3129H14.0368V22.1784C14.8803 22.1268 15.5786 22.0183 16.124 21.8586C16.6737 21.6953 16.9563 21.5016 16.9563 21.2658C16.9563 21.1743 16.9483 21.053 16.9258 20.912C16.9029 20.7731 16.8644 20.6555 16.8265 20.5469L14.937 15.4571H6.90356C6.60601 16.2021 6.35814 16.8556 6.16743 17.4068C5.98793 17.9656 5.81966 18.4791 5.66687 18.9505C5.51836 19.405 5.43022 19.7791 5.38481 20.068C5.32017 20.357 5.30094 20.5906 5.30094 20.7678C5.30094 21.2009 5.6407 21.5239 6.32395 21.7639C6.99545 21.9991 7.75082 22.1343 8.59807 22.1784V23.3129H0V22.1784C0.274583 22.1555 0.618078 22.0965 1.0417 21.9975C1.46159 21.8953 1.80509 21.7559 2.06792 21.5872C2.5033 21.2967 2.8313 20.9955 3.07223 20.6805C3.31262 20.3628 3.54927 19.9297 3.76296 19.3667C4.9115 16.5198 6.18612 13.3073 7.56812 9.74476C8.94958 6.18483 10.1932 3.0107 11.2696 0.231934H12.5672L20.1733 19.8669C20.341 20.2867 20.521 20.623 20.7267 20.8784C20.9329 21.1365 21.2112 21.3887 21.582 21.6341C21.8299 21.7831 22.1466 21.906 22.5473 22.0092C22.9405 22.1156 23.2802 22.1688 23.5431 22.1784V23.3129Z" fill="black" fill-opacity="0.2"/>
<path fill-rule="evenodd" clip-rule="evenodd" d="M35.2554 9.66635C35.2554 8.54463 34.9311 7.65544 34.3013 7.00146C33.6522 6.34748 32.7403 6.02075 31.5651 6.02075H29.3401V13.9457H31.0496C32.2515 13.9457 33.2596 13.5631 34.0491 12.7915C34.8547 12.0274 35.2554 10.9839 35.2554 9.66635V9.66635ZM42.1445 23.4479H37.1566C36.046 21.7179 35.046 20.2184 34.1533 18.9615C33.2601 17.7015 32.2868 16.4015 31.2488 15.0616H29.3406V20.9309C29.3406 21.2374 29.4015 21.5019 29.4966 21.7291C29.5848 21.9654 29.7947 22.1362 30.1147 22.2602C30.268 22.323 30.5389 22.3836 30.9283 22.4289C31.3215 22.4837 31.657 22.5188 31.9283 22.5241V23.4479H24.0819V22.5241C24.2988 22.5066 24.5964 22.4746 24.982 22.4289C25.379 22.3852 25.669 22.3299 25.8181 22.2602C26.0697 22.1479 26.2684 21.984 26.3753 21.7712C26.4933 21.5471 26.5542 21.2715 26.5542 20.9309V7.56285C26.5542 7.26061 26.5126 6.98922 26.4169 6.75509C26.3373 6.51723 26.1349 6.34056 25.8181 6.21551C25.5964 6.13942 25.3101 6.06864 24.9708 6C24.6273 5.93774 24.326 5.90156 24.0819 5.88293V4.95703H32.6495C33.4279 4.95703 34.1645 5.03313 34.8553 5.19276C35.5423 5.35559 36.1603 5.61474 36.7063 5.96807C37.2517 6.31608 37.6871 6.77371 38.0039 7.33138C38.3282 7.89384 38.4922 8.5723 38.4922 9.35931C38.4922 10.0697 38.3816 10.6976 38.1679 11.2446C37.935 11.7922 37.6299 12.2653 37.1946 12.6628C36.8014 13.0406 36.3324 13.3641 35.7864 13.6419C35.2447 13.9117 34.6304 14.141 33.9733 14.3315C34.8857 15.5442 35.6373 16.5611 36.256 17.3864C36.8591 18.2107 37.6032 19.2186 38.4772 20.3951C38.8661 20.9198 39.2064 21.3024 39.5152 21.5509C39.8357 21.8015 40.1407 22.0032 40.4463 22.1554C40.6755 22.2676 40.95 22.3624 41.301 22.4172C41.6408 22.4768 41.9116 22.5188 42.1445 22.5241V23.4479Z" fill="#333333"/>
<path fill-rule="evenodd" clip-rule="evenodd" d="M35.2554 9.66635C35.2554 8.54463 34.9311 7.65544 34.3013 7.00146C33.6522 6.34748 32.7403 6.02075 31.5651 6.02075H29.3401V13.9457H31.0496C32.2515 13.9457 33.2596 13.5631 34.0491 12.7915C34.8547 12.0274 35.2554 10.9839 35.2554 9.66635V9.66635ZM42.1445 23.4479H37.1566C36.046 21.7179 35.046 20.2184 34.1533 18.9615C33.2601 17.7015 32.2868 16.4015 31.2488 15.0616H29.3406V20.9309C29.3406 21.2374 29.4015 21.5019 29.4966 21.7291C29.5848 21.9654 29.7947 22.1362 30.1147 22.2602C30.268 22.323 30.5389 22.3836 30.9283 22.4289C31.3215 22.4837 31.657 22.5188 31.9283 22.5241V23.4479H24.0819V22.5241C24.2988 22.5066 24.5964 22.4746 24.982 22.4289C25.379 22.3852 25.669 22.3299 25.8181 22.2602C26.0697 22.1479 26.2684 21.984 26.3753 21.7712C26.4933 21.5471 26.5542 21.2715 26.5542 20.9309V7.56285C26.5542 7.26061 26.5126 6.98922 26.4169 6.75509C26.3373 6.51723 26.1349 6.34056 25.8181 6.21551C25.5964 6.13942 25.3101 6.06864 24.9708 6C24.6273 5.93774 24.326 5.90156 24.0819 5.88293V4.95703H32.6495C33.4279 4.95703 34.1645 5.03313 34.8553 5.19276C35.5423 5.35559 36.1603 5.61474 36.7063 5.96807C37.2517 6.31608 37.6871 6.77371 38.0039 7.33138C38.3282 7.89384 38.4922 8.5723 38.4922 9.35931C38.4922 10.0697 38.3816 10.6976 38.1679 11.2446C37.935 11.7922 37.6299 12.2653 37.1946 12.6628C36.8014 13.0406 36.3324 13.3641 35.7864 13.6419C35.2447 13.9117 34.6304 14.141 33.9733 14.3315C34.8857 15.5442 35.6373 16.5611 36.256 17.3864C36.8591 18.2107 37.6032 19.2186 38.4772 20.3951C38.8661 20.9198 39.2064 21.3024 39.5152 21.5509C39.8357 21.8015 40.1407 22.0032 40.4463 22.1554C40.6755 22.2676 40.95 22.3624 41.301 22.4172C41.6408 22.4768 41.9116 22.5188 42.1445 22.5241V23.4479Z" fill="black" fill-opacity="0.2"/>
<path fill-rule="evenodd" clip-rule="evenodd" d="M57.9979 9.98456H57.1004C57.0171 9.67114 56.8755 9.29865 56.6693 8.86497C56.4631 8.43714 56.2345 8.02846 55.9824 7.63895C55.7152 7.23772 55.4327 6.8977 55.1351 6.59545C54.8114 6.2916 54.5053 6.12026 54.2232 6.0745C53.9524 6.04044 53.6089 6.01383 53.2007 6.00053C52.7883 5.98191 52.4064 5.97552 52.0591 5.97552H51.2957V20.7676C51.2957 21.0485 51.3647 21.3119 51.4827 21.5509C51.6093 21.7887 51.8187 21.9766 52.1206 22.1085C52.2691 22.1692 52.5971 22.2463 53.1088 22.3533C53.6089 22.4597 54.002 22.5188 54.2804 22.5241V23.4479H45.5028V22.5241C45.7507 22.5071 46.1289 22.4704 46.6209 22.4177C47.1321 22.3682 47.4799 22.3001 47.6701 22.2224C47.9564 22.1117 48.1706 21.9441 48.3074 21.7297C48.4377 21.5205 48.5061 21.239 48.5061 20.8783V5.97552H47.7502C47.4799 5.97552 47.1321 5.97765 46.7352 5.99095C46.3346 6.00798 45.9531 6.03512 45.5904 6.0745C45.2966 6.10908 45.0065 6.28415 44.6823 6.59545C44.3804 6.90302 44.0904 7.25103 43.8307 7.63895C43.5711 8.03591 43.3387 8.45417 43.1363 8.89317C42.9343 9.33271 42.8003 9.69934 42.7132 9.98456H41.8082V4.95703H57.9979V9.98456Z" fill="#333333"/>
<path fill-rule="evenodd" clip-rule="evenodd" d="M57.9979 9.98456H57.1004C57.0171 9.67114 56.8755 9.29865 56.6693 8.86497C56.4631 8.43714 56.2345 8.02846 55.9824 7.63895C55.7152 7.23772 55.4327 6.8977 55.1351 6.59545C54.8114 6.2916 54.5053 6.12026 54.2232 6.0745C53.9524 6.04044 53.6089 6.01383 53.2007 6.00053C52.7883 5.98191 52.4064 5.97552 52.0591 5.97552H51.2957V20.7676C51.2957 21.0485 51.3647 21.3119 51.4827 21.5509C51.6093 21.7887 51.8187 21.9766 52.1206 22.1085C52.2691 22.1692 52.5971 22.2463 53.1088 22.3533C53.6089 22.4597 54.002 22.5188 54.2804 22.5241V23.4479H45.5028V22.5241C45.7507 22.5071 46.1289 22.4704 46.6209 22.4177C47.1321 22.3682 47.4799 22.3001 47.6701 22.2224C47.9564 22.1117 48.1706 21.9441 48.3074 21.7297C48.4377 21.5205 48.5061 21.239 48.5061 20.8783V5.97552H47.7502C47.4799 5.97552 47.1321 5.97765 46.7352 5.99095C46.3346 6.00798 45.9531 6.03512 45.5904 6.0745C45.2966 6.10908 45.0065 6.28415 44.6823 6.59545C44.3804 6.90302 44.0904 7.25103 43.8307 7.63895C43.5711 8.03591 43.3387 8.45417 43.1363 8.89317C42.9343 9.33271 42.8003 9.69934 42.7132 9.98456H41.8082V4.95703H57.9979V9.98456Z" fill="black" fill-opacity="0.2"/>
<path fill-rule="evenodd" clip-rule="evenodd" d="M67.5882 23.4479H59.2188V22.5241C59.4437 22.5066 59.7834 22.4768 60.23 22.4443C60.6798 22.4097 60.9971 22.3624 61.1798 22.2863C61.4624 22.174 61.6761 22.0218 61.8059 21.826C61.9357 21.6344 61.9929 21.3572 61.9929 21.0076V7.61447C61.9929 7.31009 61.9582 7.05733 61.8556 6.8498C61.76 6.65079 61.5313 6.47412 61.1798 6.33683C60.909 6.23201 60.581 6.13942 60.1915 6.04044C59.7871 5.95424 59.4591 5.90156 59.2188 5.88293V4.95703H67.5882V5.88293C67.3093 5.89038 66.9851 5.91912 66.6106 5.97712C66.2409 6.03459 65.9012 6.10696 65.6335 6.18997C65.2975 6.2948 65.0763 6.46614 64.9663 6.70187C64.8514 6.93761 64.7863 7.19782 64.7863 7.48357V20.8681C64.7863 21.155 64.8627 21.4088 64.985 21.6344C65.1148 21.851 65.3322 22.0298 65.6335 22.1554C65.8135 22.2235 66.1148 22.3059 66.531 22.3852C66.9391 22.4688 67.2938 22.5188 67.5882 22.5241V23.4479Z" fill="#333333"/>
<path fill-rule="evenodd" clip-rule="evenodd" d="M67.5882 23.4479H59.2188V22.5241C59.4437 22.5066 59.7834 22.4768 60.23 22.4443C60.6798 22.4097 60.9971 22.3624 61.1798 22.2863C61.4624 22.174 61.6761 22.0218 61.8059 21.826C61.9357 21.6344 61.9929 21.3572 61.9929 21.0076V7.61447C61.9929 7.31009 61.9582 7.05733 61.8556 6.8498C61.76 6.65079 61.5313 6.47412 61.1798 6.33683C60.909 6.23201 60.581 6.13942 60.1915 6.04044C59.7871 5.95424 59.4591 5.90156 59.2188 5.88293V4.95703H67.5882V5.88293C67.3093 5.89038 66.9851 5.91912 66.6106 5.97712C66.2409 6.03459 65.9012 6.10696 65.6335 6.18997C65.2975 6.2948 65.0763 6.46614 64.9663 6.70187C64.8514 6.93761 64.7863 7.19782 64.7863 7.48357V20.8681C64.7863 21.155 64.8627 21.4088 64.985 21.6344C65.1148 21.851 65.3322 22.0298 65.6335 22.1554C65.8135 22.2235 66.1148 22.3059 66.531 22.3852C66.9391 22.4688 67.2938 22.5188 67.5882 22.5241V23.4479Z" fill="black" fill-opacity="0.2"/>
<path fill-rule="evenodd" clip-rule="evenodd" d="M81.4665 14.9468C81.8671 15.382 82.1492 15.8588 82.3479 16.3761C82.5274 16.8986 82.6187 17.4994 82.6187 18.1837C82.6187 19.8184 82.0156 21.1663 80.8024 22.2321C79.5925 23.2889 78.0924 23.821 76.2873 23.821C75.4593 23.821 74.635 23.6917 73.8107 23.4427C72.9859 23.1947 72.2647 22.8802 71.6622 22.521L71.1082 23.4698H70.059L69.8683 17.1498H70.9404C71.1541 17.9192 71.41 18.6206 71.6958 19.2479C71.9939 19.8695 72.3796 20.4516 72.8641 20.9949C73.3107 21.501 73.8337 21.9054 74.4475 22.2113C75.0469 22.5099 75.7569 22.6583 76.5582 22.6583C77.1538 22.6583 77.6693 22.5838 78.1271 22.4279C78.57 22.272 78.9359 22.0496 79.2148 21.7628C79.4931 21.4781 79.6956 21.145 79.8329 20.756C79.9664 20.3713 80.0316 19.9227 80.0316 19.4214C80.0316 18.6855 79.8291 18.0049 79.413 17.3584C78.9856 16.7257 78.3638 16.2393 77.5352 15.912C76.9706 15.6816 76.322 15.4337 75.5929 15.1596C74.8599 14.8861 74.2189 14.6291 73.6921 14.3859C72.6424 13.916 71.8256 13.2988 71.2497 12.5405C70.6701 11.7817 70.3875 10.7818 70.3875 9.55951C70.3875 8.8603 70.5206 8.19887 70.8149 7.59224C71.1082 6.98243 71.5094 6.43274 72.0361 5.95755C72.5548 5.50311 73.1505 5.15564 73.8337 4.89117C74.5319 4.64267 75.2568 4.51123 75.9935 4.51123C76.8525 4.51123 77.6191 4.64267 78.3061 4.91405C78.9706 5.18224 79.5925 5.48449 80.1459 5.83782L80.6876 4.95609H81.741L81.8329 11.0915H80.7602C80.5733 10.3923 80.3521 9.71915 80.1112 9.07475C79.8751 8.42821 79.5583 7.85245 79.1763 7.32831C78.7949 6.82066 78.3483 6.42156 77.8098 6.11932C77.2681 5.82292 76.5966 5.66754 75.814 5.66754C74.9897 5.66754 74.284 5.93467 73.6996 6.46307C73.1195 6.99573 72.8219 7.63641 72.8219 8.39629C72.8219 9.19447 73.0089 9.85431 73.3908 10.3864C73.7648 10.9074 74.3102 11.3384 75.0239 11.6731C75.6655 11.9738 76.2873 12.2414 76.9059 12.4601C77.5165 12.6863 78.1116 12.922 78.6918 13.1732C79.2148 13.3993 79.7105 13.6611 80.2031 13.9426C80.6876 14.2316 81.1155 14.5663 81.4665 14.9468" fill="#333333"/>
<path fill-rule="evenodd" clip-rule="evenodd" d="M81.4665 14.9468C81.8671 15.382 82.1492 15.8588 82.3479 16.3761C82.5274 16.8986 82.6187 17.4994 82.6187 18.1837C82.6187 19.8184 82.0156 21.1663 80.8024 22.2321C79.5925 23.2889 78.0924 23.821 76.2873 23.821C75.4593 23.821 74.635 23.6917 73.8107 23.4427C72.9859 23.1947 72.2647 22.8802 71.6622 22.521L71.1082 23.4698H70.059L69.8683 17.1498H70.9404C71.1541 17.9192 71.41 18.6206 71.6958 19.2479C71.9939 19.8695 72.3796 20.4516 72.8641 20.9949C73.3107 21.501 73.8337 21.9054 74.4475 22.2113C75.0469 22.5099 75.7569 22.6583 76.5582 22.6583C77.1538 22.6583 77.6693 22.5838 78.1271 22.4279C78.57 22.272 78.9359 22.0496 79.2148 21.7628C79.4931 21.4781 79.6956 21.145 79.8329 20.756C79.9664 20.3713 80.0316 19.9227 80.0316 19.4214C80.0316 18.6855 79.8291 18.0049 79.413 17.3584C78.9856 16.7257 78.3638 16.2393 77.5352 15.912C76.9706 15.6816 76.322 15.4337 75.5929 15.1596C74.8599 14.8861 74.2189 14.6291 73.6921 14.3859C72.6424 13.916 71.8256 13.2988 71.2497 12.5405C70.6701 11.7817 70.3875 10.7818 70.3875 9.55951C70.3875 8.8603 70.5206 8.19887 70.8149 7.59224C71.1082 6.98243 71.5094 6.43274 72.0361 5.95755C72.5548 5.50311 73.1505 5.15564 73.8337 4.89117C74.5319 4.64267 75.2568 4.51123 75.9935 4.51123C76.8525 4.51123 77.6191 4.64267 78.3061 4.91405C78.9706 5.18224 79.5925 5.48449 80.1459 5.83782L80.6876 4.95609H81.741L81.8329 11.0915H80.7602C80.5733 10.3923 80.3521 9.71915 80.1112 9.07475C79.8751 8.42821 79.5583 7.85245 79.1763 7.32831C78.7949 6.82066 78.3483 6.42156 77.8098 6.11932C77.2681 5.82292 76.5966 5.66754 75.814 5.66754C74.9897 5.66754 74.284 5.93467 73.6996 6.46307C73.1195 6.99573 72.8219 7.63641 72.8219 8.39629C72.8219 9.19447 73.0089 9.85431 73.3908 10.3864C73.7648 10.9074 74.3102 11.3384 75.0239 11.6731C75.6655 11.9738 76.2873 12.2414 76.9059 12.4601C77.5165 12.6863 78.1116 12.922 78.6918 13.1732C79.2148 13.3993 79.7105 13.6611 80.2031 13.9426C80.6876 14.2316 81.1155 14.5663 81.4665 14.9468" fill="black" fill-opacity="0.2"/>
<path fill-rule="evenodd" clip-rule="evenodd" d="M100.077 9.98456H99.1765C99.0969 9.67114 98.9628 9.29865 98.7529 8.86497C98.5392 8.43714 98.318 8.02846 98.0584 7.63895C97.795 7.23772 97.5124 6.8977 97.2037 6.59545C96.8906 6.2916 96.5893 6.12026 96.295 6.0745C96.0359 6.04044 95.6961 6.01383 95.28 6.00053C94.8756 5.98191 94.4904 5.97552 94.1389 5.97552H93.3793V20.7676C93.3793 21.0485 93.4407 21.3119 93.563 21.5509C93.6886 21.7887 93.906 21.9766 94.2078 22.1085C94.3644 22.1692 94.6924 22.2463 95.1844 22.3533C95.6961 22.4597 96.0738 22.5188 96.3639 22.5241V23.4479H87.5863V22.5241C87.8342 22.5071 88.2044 22.4704 88.7119 22.4177C89.2039 22.3682 89.5597 22.3001 89.7499 22.2224C90.04 22.1117 90.2419 21.9441 90.3872 21.7297C90.517 21.5205 90.5854 21.239 90.5854 20.8783V5.97552H89.8343C89.5597 5.97552 89.2119 5.97765 88.8188 5.99095C88.4144 6.00798 88.0287 6.03512 87.6659 6.0745C87.3876 6.10908 87.0783 6.28415 86.7658 6.59545C86.4527 6.90302 86.1702 7.25103 85.9217 7.63895C85.6434 8.03591 85.4185 8.45417 85.2161 8.89317C85.0141 9.33271 84.88 9.69934 84.7967 9.98456H83.8843V4.95703H100.077V9.98456Z" fill="#333333"/>
<path fill-rule="evenodd" clip-rule="evenodd" d="M100.077 9.98456H99.1765C99.0969 9.67114 98.9628 9.29865 98.7529 8.86497C98.5392 8.43714 98.318 8.02846 98.0584 7.63895C97.795 7.23772 97.5124 6.8977 97.2037 6.59545C96.8906 6.2916 96.5893 6.12026 96.295 6.0745C96.0359 6.04044 95.6961 6.01383 95.28 6.00053C94.8756 5.98191 94.4904 5.97552 94.1389 5.97552H93.3793V20.7676C93.3793 21.0485 93.4407 21.3119 93.563 21.5509C93.6886 21.7887 93.906 21.9766 94.2078 22.1085C94.3644 22.1692 94.6924 22.2463 95.1844 22.3533C95.6961 22.4597 96.0738 22.5188 96.3639 22.5241V23.4479H87.5863V22.5241C87.8342 22.5071 88.2044 22.4704 88.7119 22.4177C89.2039 22.3682 89.5597 22.3001 89.7499 22.2224C90.04 22.1117 90.2419 21.9441 90.3872 21.7297C90.517 21.5205 90.5854 21.239 90.5854 20.8783V5.97552H89.8343C89.5597 5.97552 89.2119 5.97765 88.8188 5.99095C88.4144 6.00798 88.0287 6.03512 87.6659 6.0745C87.3876 6.10908 87.0783 6.28415 86.7658 6.59545C86.4527 6.90302 86.1702 7.25103 85.9217 7.63895C85.6434 8.03591 85.4185 8.45417 85.2161 8.89317C85.0141 9.33271 84.88 9.69934 84.7967 9.98456H83.8843V4.95703H100.077V9.98456Z" fill="black" fill-opacity="0.2"/>
<path fill-rule="evenodd" clip-rule="evenodd" d="M109.668 23.4479H101.292V22.5241C101.524 22.5066 101.865 22.4768 102.311 22.4443C102.761 22.4097 103.074 22.3624 103.261 22.2863C103.539 22.174 103.749 22.0218 103.887 21.826C104.016 21.6344 104.085 21.3572 104.085 21.0076V7.61447C104.085 7.31009 104.036 7.05733 103.937 6.8498C103.841 6.65079 103.608 6.47412 103.261 6.33683C102.99 6.23201 102.666 6.13942 102.261 6.04044C101.868 5.95424 101.544 5.90156 101.292 5.88293V4.95703H109.668V5.88293C109.394 5.89038 109.073 5.91912 108.699 5.97712C108.322 6.03459 108.001 6.10696 107.707 6.18997C107.376 6.2948 107.162 6.46614 107.051 6.70187C106.928 6.93761 106.868 7.19782 106.868 7.48357V20.8681C106.868 21.155 106.936 21.4088 107.058 21.6344C107.188 21.851 107.406 22.0298 107.707 22.1554C107.894 22.2235 108.2 22.3059 108.608 22.3852C109.032 22.4688 109.383 22.5188 109.668 22.5241V23.4479Z" fill="#333333"/>
<path fill-rule="evenodd" clip-rule="evenodd" d="M109.668 23.4479H101.292V22.5241C101.524 22.5066 101.865 22.4768 102.311 22.4443C102.761 22.4097 103.074 22.3624 103.261 22.2863C103.539 22.174 103.749 22.0218 103.887 21.826C104.016 21.6344 104.085 21.3572 104.085 21.0076V7.61447C104.085 7.31009 104.036 7.05733 103.937 6.8498C103.841 6.65079 103.608 6.47412 103.261 6.33683C102.99 6.23201 102.666 6.13942 102.261 6.04044C101.868 5.95424 101.544 5.90156 101.292 5.88293V4.95703H109.668V5.88293C109.394 5.89038 109.073 5.91912 108.699 5.97712C108.322 6.03459 108.001 6.10696 107.707 6.18997C107.376 6.2948 107.162 6.46614 107.051 6.70187C106.928 6.93761 106.868 7.19782 106.868 7.48357V20.8681C106.868 21.155 106.936 21.4088 107.058 21.6344C107.188 21.851 107.406 22.0298 107.707 22.1554C107.894 22.2235 108.2 22.3059 108.608 22.3852C109.032 22.4688 109.383 22.5188 109.668 22.5241V23.4479Z" fill="black" fill-opacity="0.2"/>
<path fill-rule="evenodd" clip-rule="evenodd" d="M120.19 23.8868C119.084 23.8868 118.023 23.6697 117.004 23.2387C115.989 22.8034 115.096 22.1739 114.305 21.3571C113.539 20.5392 112.913 19.5436 112.451 18.3687C111.993 17.1842 111.753 15.8538 111.753 14.3751C111.753 12.8904 111.993 11.5505 112.44 10.3511C112.898 9.14639 113.52 8.10395 114.317 7.23765C115.123 6.37241 116.05 5.70938 117.126 5.2459C118.214 4.77018 119.362 4.53711 120.592 4.53711C121.504 4.53711 122.332 4.65258 123.069 4.88246C123.813 5.10702 124.515 5.43215 125.194 5.83869L125.724 4.95696H126.762L126.884 11.5638H125.82C125.675 10.9136 125.473 10.2106 125.194 9.45821C124.912 8.70526 124.584 8.06458 124.213 7.5399C123.789 6.9503 123.297 6.48469 122.72 6.15211C122.145 5.81741 121.481 5.64872 120.744 5.64872C119.897 5.64872 119.111 5.83497 118.386 6.21118C117.664 6.58154 117.027 7.13548 116.493 7.86662C115.989 8.57222 115.592 9.46566 115.309 10.5507C115.024 11.6399 114.882 12.8505 114.882 14.1867C114.882 15.3765 115.031 16.4589 115.332 17.4449C115.634 18.4315 116.061 19.2978 116.618 20.0491C117.175 20.7888 117.836 21.3629 118.592 21.7828C119.362 22.2005 120.205 22.408 121.153 22.408C121.858 22.408 122.512 22.3 123.099 22.0733C123.697 21.8509 124.213 21.5561 124.645 21.1953C125.079 20.8133 125.469 20.3796 125.801 19.8948C126.125 19.4127 126.396 18.8721 126.606 18.3059L127.583 18.7757C126.839 20.6095 125.839 21.9217 124.607 22.7103C123.37 23.4936 121.904 23.8868 120.19 23.8868" fill="#333333"/>
<path fill-rule="evenodd" clip-rule="evenodd" d="M120.19 23.8868C119.084 23.8868 118.023 23.6697 117.004 23.2387C115.989 22.8034 115.096 22.1739 114.305 21.3571C113.539 20.5392 112.913 19.5436 112.451 18.3687C111.993 17.1842 111.753 15.8538 111.753 14.3751C111.753 12.8904 111.993 11.5505 112.44 10.3511C112.898 9.14639 113.52 8.10395 114.317 7.23765C115.123 6.37241 116.05 5.70938 117.126 5.2459C118.214 4.77018 119.362 4.53711 120.592 4.53711C121.504 4.53711 122.332 4.65258 123.069 4.88246C123.813 5.10702 124.515 5.43215 125.194 5.83869L125.724 4.95696H126.762L126.884 11.5638H125.82C125.675 10.9136 125.473 10.2106 125.194 9.45821C124.912 8.70526 124.584 8.06458 124.213 7.5399C123.789 6.9503 123.297 6.48469 122.72 6.15211C122.145 5.81741 121.481 5.64872 120.744 5.64872C119.897 5.64872 119.111 5.83497 118.386 6.21118C117.664 6.58154 117.027 7.13548 116.493 7.86662C115.989 8.57222 115.592 9.46566 115.309 10.5507C115.024 11.6399 114.882 12.8505 114.882 14.1867C114.882 15.3765 115.031 16.4589 115.332 17.4449C115.634 18.4315 116.061 19.2978 116.618 20.0491C117.175 20.7888 117.836 21.3629 118.592 21.7828C119.362 22.2005 120.205 22.408 121.153 22.408C121.858 22.408 122.512 22.3 123.099 22.0733C123.697 21.8509 124.213 21.5561 124.645 21.1953C125.079 20.8133 125.469 20.3796 125.801 19.8948C126.125 19.4127 126.396 18.8721 126.606 18.3059L127.583 18.7757C126.839 20.6095 125.839 21.9217 124.607 22.7103C123.37 23.4936 121.904 23.8868 120.19 23.8868" fill="black" fill-opacity="0.2"/>
<mask id="mask0_2_1059" style="mask-type:alpha" maskUnits="userSpaceOnUse" x="135" y="0" width="23" height="24">
<path fill-rule="evenodd" clip-rule="evenodd" d="M135.608 0H157.801V23.87H135.608V0Z" fill="white"/>
</mask>
<g mask="url(#mask0_2_1059)">
<path fill-rule="evenodd" clip-rule="evenodd" d="M146.431 4.81619C146.431 3.72586 146.187 2.88936 145.702 2.30775C145.221 1.7256 144.534 1.43506 143.652 1.43506C143.138 1.43506 142.729 1.53403 142.393 1.74103C142.065 1.94271 141.778 2.19706 141.549 2.50676C141.332 2.80954 141.18 3.12243 141.088 3.47044C140.977 3.80941 140.931 4.11698 140.931 4.38144C140.931 5.11844 141.122 5.86767 141.512 6.62223C141.905 7.37146 142.508 8.28353 143.321 9.35363C144.416 8.73211 145.214 8.06323 145.702 7.34432C146.187 6.62223 146.431 5.77455 146.431 4.81619V4.81619ZM147.683 19.6531C146.684 18.3909 145.553 17.0074 144.313 15.5095C143.057 14.0078 142.057 12.7339 141.302 11.6909C140.439 12.2896 139.825 12.9946 139.474 13.8061C139.115 14.6123 138.936 15.5345 138.936 16.57C138.936 18.0184 139.352 19.2312 140.18 20.1858C141.012 21.1452 142.126 21.6241 143.515 21.6241C144.298 21.6241 145.065 21.4533 145.828 21.1223C146.579 20.7818 147.21 20.2954 147.683 19.6531V19.6531ZM157.801 10.0322C157.172 10.0854 156.53 10.211 155.889 10.4105C155.243 10.6122 154.759 10.9219 154.408 11.3497C154.187 11.6099 153.962 11.9808 153.737 12.4863C153.496 12.9823 153.229 13.5905 152.9 14.2631C152.58 14.948 152.252 15.6248 151.919 16.2879C151.592 16.9472 151.16 17.6091 150.634 18.2743C151.069 18.7851 151.592 19.3497 152.225 19.9547C152.839 20.5587 153.37 20.9961 153.813 21.2664C154.24 21.5128 154.851 21.7182 155.636 21.8912C156.427 22.063 157.068 22.1556 157.575 22.1785V23.313H150.939L148.535 20.5837C148.183 20.9716 147.779 21.3702 147.333 21.7831C146.867 22.1897 146.386 22.5473 145.879 22.8437C145.317 23.1667 144.76 23.4178 144.192 23.5998C143.631 23.7845 142.974 23.8701 142.207 23.8701C141.417 23.8701 140.634 23.7563 139.845 23.5285C139.058 23.3002 138.341 22.9272 137.704 22.4291C137.081 21.9348 136.566 21.3026 136.177 20.5326C135.799 19.7605 135.608 18.8479 135.608 17.7746C135.608 16.4491 135.959 15.2444 136.661 14.1721C137.361 13.0983 138.669 11.9595 140.593 10.7511C139.722 9.60063 139.051 8.6146 138.57 7.78022C138.089 6.94319 137.841 6.01037 137.841 4.97592C137.841 4.23519 137.997 3.55407 138.28 2.94266C138.574 2.32273 138.989 1.78901 139.539 1.32499C140.024 0.912065 140.634 0.581614 141.341 0.349607C142.039 0.116004 142.765 0 143.497 0C144.348 0 145.1 0.133032 145.749 0.40282C146.401 0.676333 146.931 1.03233 147.34 1.47293C147.714 1.88 148.004 2.35306 148.195 2.88732C148.401 3.41944 148.508 3.9553 148.508 4.49168C148.508 5.77464 148.1 6.8788 147.305 7.80044C146.508 8.7322 145.405 9.56072 144.012 10.3009C145.02 11.6557 146 12.8913 146.966 14.0167C147.943 15.1342 148.863 16.2331 149.756 17.3143C150.47 16.1697 151.023 15.0943 151.42 14.0806C151.809 13.0738 152.015 12.1782 152.015 11.4125C152.015 11.0688 151.756 10.8 151.256 10.6026C150.763 10.4015 150.08 10.211 149.191 10.0322V8.90141H157.801V10.0322Z" fill="#333333"/>
<path fill-rule="evenodd" clip-rule="evenodd" d="M146.431 4.81619C146.431 3.72586 146.187 2.88936 145.702 2.30775C145.221 1.7256 144.534 1.43506 143.652 1.43506C143.138 1.43506 142.729 1.53403 142.393 1.74103C142.065 1.94271 141.778 2.19706 141.549 2.50676C141.332 2.80954 141.18 3.12243 141.088 3.47044C140.977 3.80941 140.931 4.11698 140.931 4.38144C140.931 5.11844 141.122 5.86767 141.512 6.62223C141.905 7.37146 142.508 8.28353 143.321 9.35363C144.416 8.73211 145.214 8.06323 145.702 7.34432C146.187 6.62223 146.431 5.77455 146.431 4.81619V4.81619ZM147.683 19.6531C146.684 18.3909 145.553 17.0074 144.313 15.5095C143.057 14.0078 142.057 12.7339 141.302 11.6909C140.439 12.2896 139.825 12.9946 139.474 13.8061C139.115 14.6123 138.936 15.5345 138.936 16.57C138.936 18.0184 139.352 19.2312 140.18 20.1858C141.012 21.1452 142.126 21.6241 143.515 21.6241C144.298 21.6241 145.065 21.4533 145.828 21.1223C146.579 20.7818 147.21 20.2954 147.683 19.6531V19.6531ZM157.801 10.0322C157.172 10.0854 156.53 10.211 155.889 10.4105C155.243 10.6122 154.759 10.9219 154.408 11.3497C154.187 11.6099 153.962 11.9808 153.737 12.4863C153.496 12.9823 153.229 13.5905 152.9 14.2631C152.58 14.948 152.252 15.6248 151.919 16.2879C151.592 16.9472 151.16 17.6091 150.634 18.2743C151.069 18.7851 151.592 19.3497 152.225 19.9547C152.839 20.5587 153.37 20.9961 153.813 21.2664C154.24 21.5128 154.851 21.7182 155.636 21.8912C156.427 22.063 157.068 22.1556 157.575 22.1785V23.313H150.939L148.535 20.5837C148.183 20.9716 147.779 21.3702 147.333 21.7831C146.867 22.1897 146.386 22.5473 145.879 22.8437C145.317 23.1667 144.76 23.4178 144.192 23.5998C143.631 23.7845 142.974 23.8701 142.207 23.8701C141.417 23.8701 140.634 23.7563 139.845 23.5285C139.058 23.3002 138.341 22.9272 137.704 22.4291C137.081 21.9348 136.566 21.3026 136.177 20.5326C135.799 19.7605 135.608 18.8479 135.608 17.7746C135.608 16.4491 135.959 15.2444 136.661 14.1721C137.361 13.0983 138.669 11.9595 140.593 10.7511C139.722 9.60063 139.051 8.6146 138.57 7.78022C138.089 6.94319 137.841 6.01037 137.841 4.97592C137.841 4.23519 137.997 3.55407 138.28 2.94266C138.574 2.32273 138.989 1.78901 139.539 1.32499C140.024 0.912065 140.634 0.581614 141.341 0.349607C142.039 0.116004 142.765 0 143.497 0C144.348 0 145.1 0.133032 145.749 0.40282C146.401 0.676333 146.931 1.03233 147.34 1.47293C147.714 1.88 148.004 2.35306 148.195 2.88732C148.401 3.41944 148.508 3.9553 148.508 4.49168C148.508 5.77464 148.1 6.8788 147.305 7.80044C146.508 8.7322 145.405 9.56072 144.012 10.3009C145.02 11.6557 146 12.8913 146.966 14.0167C147.943 15.1342 148.863 16.2331 149.756 17.3143C150.47 16.1697 151.023 15.0943 151.42 14.0806C151.809 13.0738 152.015 12.1782 152.015 11.4125C152.015 11.0688 151.756 10.8 151.256 10.6026C150.763 10.4015 150.08 10.211 149.191 10.0322V8.90141H157.801V10.0322Z" fill="black" fill-opacity="0.2"/>
</g>
<path fill-rule="evenodd" clip-rule="evenodd" d="M174.8 23.8701C173.446 23.8701 172.136 23.6019 170.877 23.066C169.636 22.5339 168.526 21.7559 167.557 20.7529C166.602 19.7493 165.836 18.5174 165.271 17.069C164.702 15.6189 164.42 13.9784 164.42 12.1574C164.42 10.3402 164.698 8.68639 165.256 7.19803C165.817 5.71393 166.58 4.44374 167.573 3.36565C168.549 2.30779 169.702 1.48991 171.037 0.912019C172.369 0.330937 173.789 0.0419922 175.308 0.0419922C176.434 0.0419922 177.445 0.180345 178.365 0.465565C179.281 0.750785 180.152 1.14243 180.972 1.64422L181.64 0.552834H182.918L183.051 8.66563H181.727C181.559 7.8733 181.292 7.01391 180.956 6.08642C180.613 5.16424 180.204 4.3751 179.746 3.7408C179.227 3.01073 178.621 2.43869 177.922 2.03002C177.205 1.61389 176.392 1.41381 175.483 1.41381C174.438 1.41381 173.476 1.6421 172.571 2.09813C171.678 2.56268 170.9 3.24433 170.244 4.14735C169.629 5.01046 169.137 6.1093 168.786 7.44919C168.439 8.79441 168.263 10.287 168.263 11.9425C168.263 13.3962 168.443 14.7308 168.809 15.9515C169.183 17.1637 169.713 18.2338 170.4 19.1522C171.083 20.0654 171.9 20.7795 172.843 21.2871C173.782 21.806 174.819 22.063 175.988 22.063C176.85 22.063 177.666 21.9257 178.388 21.6522C179.121 21.3835 179.746 21.0205 180.288 20.572C180.826 20.1048 181.292 19.5668 181.696 18.9697C182.12 18.369 182.448 17.7171 182.708 17.0078L183.914 17.5841C182.987 19.844 181.762 21.4542 180.246 22.4179C178.72 23.3853 176.911 23.8701 174.8 23.8701" fill="#333333"/>
<path fill-rule="evenodd" clip-rule="evenodd" d="M174.8 23.8701C173.446 23.8701 172.136 23.6019 170.877 23.066C169.636 22.5339 168.526 21.7559 167.557 20.7529C166.602 19.7493 165.836 18.5174 165.271 17.069C164.702 15.6189 164.42 13.9784 164.42 12.1574C164.42 10.3402 164.698 8.68639 165.256 7.19803C165.817 5.71393 166.58 4.44374 167.573 3.36565C168.549 2.30779 169.702 1.48991 171.037 0.912019C172.369 0.330937 173.789 0.0419922 175.308 0.0419922C176.434 0.0419922 177.445 0.180345 178.365 0.465565C179.281 0.750785 180.152 1.14243 180.972 1.64422L181.64 0.552834H182.918L183.051 8.66563H181.727C181.559 7.8733 181.292 7.01391 180.956 6.08642C180.613 5.16424 180.204 4.3751 179.746 3.7408C179.227 3.01073 178.621 2.43869 177.922 2.03002C177.205 1.61389 176.392 1.41381 175.483 1.41381C174.438 1.41381 173.476 1.6421 172.571 2.09813C171.678 2.56268 170.9 3.24433 170.244 4.14735C169.629 5.01046 169.137 6.1093 168.786 7.44919C168.439 8.79441 168.263 10.287 168.263 11.9425C168.263 13.3962 168.443 14.7308 168.809 15.9515C169.183 17.1637 169.713 18.2338 170.4 19.1522C171.083 20.0654 171.9 20.7795 172.843 21.2871C173.782 21.806 174.819 22.063 175.988 22.063C176.85 22.063 177.666 21.9257 178.388 21.6522C179.121 21.3835 179.746 21.0205 180.288 20.572C180.826 20.1048 181.292 19.5668 181.696 18.9697C182.12 18.369 182.448 17.7171 182.708 17.0078L183.914 17.5841C182.987 19.844 181.762 21.4542 180.246 22.4179C178.72 23.3853 176.911 23.8701 174.8 23.8701" fill="black" fill-opacity="0.2"/>
<mask id="mask1_2_1059" style="mask-type:alpha" maskUnits="userSpaceOnUse" x="185" y="4" width="19" height="20">
<path fill-rule="evenodd" clip-rule="evenodd" d="M185.389 4.62158H203.242V24H185.389V4.62158Z" fill="white"/>
</mask>
<g mask="url(#mask1_2_1059)">
<path fill-rule="evenodd" clip-rule="evenodd" d="M198.677 20.3623C199.154 19.5694 199.517 18.676 199.742 17.6766C199.959 16.6805 200.07 15.5604 200.07 14.3306C200.07 13.061 199.949 11.8924 199.7 10.8314C199.448 9.77829 199.086 8.8758 198.605 8.12338C198.128 7.38319 197.529 6.80956 196.803 6.40088C196.074 5.98263 195.254 5.77564 194.323 5.77564C193.266 5.77564 192.381 6.01509 191.64 6.49986C190.915 6.97239 190.32 7.61147 189.853 8.40594C189.411 9.1722 189.083 10.071 188.877 11.0937C188.667 12.1244 188.556 13.1999 188.556 14.3306C188.556 15.5801 188.674 16.705 188.892 17.7176C189.125 18.7239 189.484 19.6168 189.964 20.4038C190.438 21.1685 191.045 21.757 191.746 22.1907C192.464 22.626 193.319 22.8361 194.323 22.8361C195.254 22.8361 196.098 22.6185 196.841 22.1854C197.59 21.749 198.208 21.1472 198.677 20.3623M200.616 7.25188C201.445 8.10329 202.082 9.12816 202.544 10.3329C203.002 11.5344 203.242 12.8669 203.242 14.3302C203.242 15.7973 203.002 17.1244 202.533 18.3281C202.067 19.5254 201.403 20.5481 200.563 21.39C199.761 22.2227 198.819 22.8693 197.743 23.321C196.666 23.7643 195.525 24 194.324 24C193.022 24 191.831 23.7569 190.74 23.2705C189.644 22.7889 188.702 22.1184 187.923 21.2644C187.137 20.4156 186.514 19.3945 186.065 18.1887C185.607 16.9877 185.389 15.7031 185.389 14.3302C185.389 12.819 185.625 11.4828 186.099 10.3063C186.564 9.12816 187.213 8.11127 188.045 7.25188C188.866 6.40048 189.816 5.7465 190.908 5.29206C191.988 4.84348 193.121 4.62158 194.324 4.62158C195.544 4.62158 196.694 4.84348 197.796 5.30909C198.884 5.76778 199.827 6.41751 200.616 7.25188" fill="#333333"/>
<path fill-rule="evenodd" clip-rule="evenodd" d="M198.677 20.3623C199.154 19.5694 199.517 18.676 199.742 17.6766C199.959 16.6805 200.07 15.5604 200.07 14.3306C200.07 13.061 199.949 11.8924 199.7 10.8314C199.448 9.77829 199.086 8.8758 198.605 8.12338C198.128 7.38319 197.529 6.80956 196.803 6.40088C196.074 5.98263 195.254 5.77564 194.323 5.77564C193.266 5.77564 192.381 6.01509 191.64 6.49986C190.915 6.97239 190.32 7.61147 189.853 8.40594C189.411 9.1722 189.083 10.071 188.877 11.0937C188.667 12.1244 188.556 13.1999 188.556 14.3306C188.556 15.5801 188.674 16.705 188.892 17.7176C189.125 18.7239 189.484 19.6168 189.964 20.4038C190.438 21.1685 191.045 21.757 191.746 22.1907C192.464 22.626 193.319 22.8361 194.323 22.8361C195.254 22.8361 196.098 22.6185 196.841 22.1854C197.59 21.749 198.208 21.1472 198.677 20.3623M200.616 7.25188C201.445 8.10329 202.082 9.12816 202.544 10.3329C203.002 11.5344 203.242 12.8669 203.242 14.3302C203.242 15.7973 203.002 17.1244 202.533 18.3281C202.067 19.5254 201.403 20.5481 200.563 21.39C199.761 22.2227 198.819 22.8693 197.743 23.321C196.666 23.7643 195.525 24 194.324 24C193.022 24 191.831 23.7569 190.74 23.2705C189.644 22.7889 188.702 22.1184 187.923 21.2644C187.137 20.4156 186.514 19.3945 186.065 18.1887C185.607 16.9877 185.389 15.7031 185.389 14.3302C185.389 12.819 185.625 11.4828 186.099 10.3063C186.564 9.12816 187.213 8.11127 188.045 7.25188C188.866 6.40048 189.816 5.7465 190.908 5.29206C191.988 4.84348 193.121 4.62158 194.324 4.62158C195.544 4.62158 196.694 4.84348 197.796 5.30909C198.884 5.76778 199.827 6.41751 200.616 7.25188" fill="black" fill-opacity="0.2"/>
</g>
<path fill-rule="evenodd" clip-rule="evenodd" d="M211 21.4783C211 22.0727 210.783 22.5841 210.344 23.0103C209.905 23.428 209.386 23.6371 208.783 23.6371C208.184 23.6371 207.665 23.428 207.234 23.0103C206.795 22.5841 206.585 22.0727 206.585 21.4783C206.585 20.8775 206.795 20.3619 207.234 19.9309C207.665 19.4972 208.184 19.2822 208.783 19.2822C209.386 19.2822 209.905 19.4972 210.344 19.9309C210.783 20.3619 211 20.8775 211 21.4783" fill="#B39D79"/>
</svg>
