<svg width="11" height="10" viewBox="0 0 11 10" fill="none" xmlns="http://www.w3.org/2000/svg">
<path d="M10.1501 0.441531C9.98511 0.301611 9.72595 0.281591 9.45799 0.389171H9.45755C9.17573 0.502251 1.48013 3.80313 1.16685 3.93799C1.10987 3.95779 0.612228 4.14347 0.663488 4.55707C0.709248 4.92997 1.10921 5.08441 1.15805 5.10223L3.11451 5.77213C3.24431 6.20421 3.72281 7.79833 3.82863 8.13889C3.89463 8.35119 4.00221 8.63015 4.19075 8.68757C4.35619 8.75137 4.52075 8.69307 4.62723 8.60947L5.82337 7.50001L7.75431 9.00591L7.80029 9.03341C7.93141 9.09149 8.05703 9.12053 8.17693 9.12053C8.26955 9.12053 8.35843 9.10315 8.44335 9.06839C8.73265 8.94959 8.84837 8.67393 8.86047 8.64269L10.3028 1.14575C10.3908 0.745351 10.2685 0.541631 10.1501 0.441531ZM4.83997 6.04009L4.17997 7.80009L3.51997 5.60009L8.57997 1.86009L4.83997 6.04009Z" fill="#B39D79"/>
</svg>
